<?xml version="1.0" encoding="iso-8859-1"?>
<!-- Generator: Adobe Illustrator 26.0.1, SVG Export Plug-In . SVG Version: 6.00 Build 0)  -->
<svg version="1.1" id="Layer_1" xmlns="http://www.w3.org/2000/svg" xmlns:xlink="http://www.w3.org/1999/xlink" x="0px" y="0px"
	 viewBox="0 0 1000 1000" style="enable-background:new 0 0 1000 1000;" xml:space="preserve">
<g id="watermark_1_">
	<g>
		<g id="watermark" style="opacity:0.61;">
			<g>
				<g>
					<g>
						<g>
							<polygon style="fill:#FFFFFF;" points="421.112,938.348 409.007,966.313 402.615,966.313 390.55,938.348 397.541,938.348 
								406.051,958.323 414.68,938.348 							"/>
						</g>
						<g>
							<path style="fill:#FFFFFF;" d="M442.323,957.005h-16.26c0.599,2.677,2.876,4.315,6.153,4.315
								c2.277,0,3.915-0.679,5.393-2.077l3.316,3.595c-1.997,2.278-4.994,3.476-8.868,3.476c-7.431,0-12.265-4.674-12.265-11.067
								c0-6.432,4.914-11.066,11.466-11.066c6.312,0,11.186,4.235,11.186,11.146C442.443,955.806,442.363,956.486,442.323,957.005
								 M425.983,953.37h10.587c-0.44-2.717-2.478-4.475-5.274-4.475C428.46,948.895,426.422,950.613,425.983,953.37"/>
						</g>
						<g>
							<path style="fill:#FFFFFF;" d="M444.997,955.247c0-6.471,4.994-11.066,11.985-11.066c4.514,0,8.07,1.958,9.628,5.473
								l-4.834,2.597c-1.159-2.038-2.877-2.956-4.834-2.956c-3.156,0-5.633,2.198-5.633,5.952c0,3.756,2.477,5.953,5.633,5.953
								c1.958,0,3.675-0.879,4.834-2.956l4.834,2.637c-1.558,3.436-5.114,5.433-9.628,5.433
								C449.991,966.313,444.997,961.719,444.997,955.247"/>
						</g>
						<g>
							<path style="fill:#FFFFFF;" d="M484.386,964.955c-1.279,0.919-3.157,1.358-5.074,1.358c-5.073,0-8.03-2.597-8.03-7.711
								v-8.829h-3.316v-4.794h3.316v-5.233h6.232v5.233h5.353v4.794h-5.353v8.749c0,1.837,0.998,2.836,2.677,2.836
								c0.918,0,1.837-0.279,2.517-0.799L484.386,964.955z"/>
						</g>
					</g>
					<g>
						<path style="fill:#FFFFFF;" d="M527.157,944.5v5.753c-0.519-0.04-0.918-0.08-1.398-0.08c-3.435,0-5.713,1.877-5.713,5.993
							v10.147h-6.232V944.82h5.953v2.836C521.284,945.578,523.841,944.5,527.157,944.5"/>
					</g>
					<g>
						<path style="fill:#FFFFFF;" d="M528.954,963.077l2.197-4.874c2.357,1.718,5.873,2.916,9.229,2.916
							c3.836,0,5.393-1.278,5.393-2.996c0-5.233-16.26-1.638-16.26-12.025c0-4.754,3.835-8.709,11.785-8.709
							c3.516,0,7.112,0.839,9.708,2.477l-1.998,4.914c-2.597-1.478-5.273-2.197-7.75-2.197c-3.835,0-5.313,1.438-5.313,3.196
							c0,5.154,16.259,1.598,16.259,11.865c0,4.675-3.875,8.67-11.865,8.67C535.905,966.313,531.43,964.995,528.954,963.077"/>
					</g>
					<g>
						<path style="fill:#FFFFFF;" d="M577.131,957.005h-16.26c0.599,2.677,2.876,4.315,6.153,4.315c2.277,0,3.915-0.679,5.393-2.077
							l3.316,3.595c-1.998,2.278-4.994,3.476-8.869,3.476c-7.431,0-12.265-4.674-12.265-11.067c0-6.432,4.914-11.066,11.466-11.066
							c6.312,0,11.187,4.235,11.187,11.146C577.251,955.806,577.171,956.486,577.131,957.005 M560.791,953.37h10.587
							c-0.439-2.717-2.477-4.475-5.273-4.475C563.268,948.895,561.231,950.613,560.791,953.37"/>
					</g>
					<g>
						<path style="fill:#FFFFFF;" d="M602.337,957.005h-16.26c0.599,2.677,2.876,4.315,6.152,4.315c2.277,0,3.915-0.679,5.393-2.077
							l3.316,3.595c-1.998,2.278-4.994,3.476-8.869,3.476c-7.431,0-12.265-4.674-12.265-11.067c0-6.432,4.914-11.066,11.466-11.066
							c6.312,0,11.186,4.235,11.186,11.146C602.457,955.806,602.377,956.486,602.337,957.005 M585.997,953.37h10.587
							c-0.439-2.717-2.477-4.475-5.273-4.475C588.474,948.895,586.437,950.613,585.997,953.37"/>
					</g>
					<g>
						<polygon style="fill:#FFFFFF;" points="615.838,957.883 612.841,960.84 612.841,966.313 606.61,966.313 606.61,936.67 
							612.841,936.67 612.841,953.449 621.95,944.82 629.381,944.82 620.432,953.928 630.18,966.313 622.63,966.313 						"/>
					</g>
					<g>
						<path style="fill:#FFFFFF;" d="M514.371,969.236L514.371,969.236l-6.226-6.226c-0.947,1.107-2.075,2.054-3.339,2.796
							c-0.201,0.15-0.406,0.296-0.616,0.433l6.589,6.589c0.992,0.992,2.601,0.992,3.592,0
							C515.363,971.836,515.363,970.228,514.371,969.236"/>
					</g>
					<g>
						<path style="fill:#FFFFFF;" d="M499.965,942.859c0.48-0.377,1.077-0.612,1.735-0.612c0.091,0,0.181,0.005,0.27,0.013
							c-0.466-0.34-1.041-0.542-1.663-0.542c-0.859,0-1.619,0.392-2.137,0.998c-0.111,0-0.218,0.013-0.328,0.016
							c0.086-0.167,0.139-0.354,0.139-0.555c0-0.509-0.311-0.945-0.752-1.13c0.19,0.275,0.301,0.608,0.301,0.968
							c0,0.267-0.066,0.517-0.176,0.742c-6.119,0.437-10.95,5.527-10.95,11.757c0,6.516,5.283,11.799,11.799,11.799
							c6.517,0,11.8-5.283,11.8-11.799C510.004,948.597,505.644,943.711,499.965,942.859 M495.61,945.934
							c0.947,0,1.837,0.244,2.611,0.674c0.813-0.532,1.785-0.842,2.828-0.842c1.547,0,2.934,0.68,3.883,1.756
							c-0.948-0.826-2.186-1.328-3.541-1.328c-0.977,0-1.895,0.261-2.686,0.716c-0.172,0.1-0.34,0.208-0.499,0.326
							c-0.142-0.104-0.29-0.203-0.444-0.292c-0.803-0.476-1.741-0.749-2.743-0.749c-0.653,0-1.279,0.117-1.86,0.331
							C493.895,946.148,494.727,945.934,495.61,945.934 M503.858,955.604c0.25,0.664,0.394,1.38,0.394,2.131
							c0,3.34-2.707,6.047-6.047,6.047c-3.339,0-6.047-2.707-6.047-6.047c0-0.751,0.143-1.467,0.394-2.131
							c-1.35-0.831-2.253-2.317-2.253-4.019c0-2.607,2.114-4.72,4.72-4.72c1.23,0,2.346,0.474,3.186,1.244
							c0.84-0.77,1.956-1.244,3.186-1.244c2.607,0,4.72,2.113,4.72,4.72C506.111,953.287,505.208,954.774,503.858,955.604"/>
					</g>
					<g>
						<path style="fill:#FFFFFF;" d="M503.627,951.17c0,1.082-0.879,1.961-1.961,1.961c-1.082,0-1.961-0.879-1.961-1.961
							c0-1.082,0.879-1.961,1.961-1.961c0.22,0,0.428,0.037,0.625,0.102c-0.065,0.135-0.099,0.287-0.099,0.445
							c0,0.595,0.482,1.076,1.077,1.076c0.11,0,0.217-0.017,0.318-0.048C503.613,950.908,503.627,951.038,503.627,951.17"/>
					</g>
					<g>
						<path style="fill:#FFFFFF;" d="M496.201,951.17c0,0.818-0.665,1.483-1.483,1.483c-0.818,0-1.483-0.664-1.483-1.483
							c0-0.818,0.665-1.482,1.483-1.482c0.166,0,0.324,0.027,0.473,0.077c-0.049,0.102-0.075,0.217-0.075,0.337
							c0,0.449,0.364,0.814,0.814,0.814c0.083,0,0.164-0.013,0.241-0.036C496.191,950.972,496.201,951.07,496.201,951.17"/>
					</g>
					<g>
						<g>
							<g>
								<rect x="484.56" y="952.844" style="fill:#FFFFFF;" width="1.34" height="1.34"/>
							</g>
							<g>
								<rect x="510.51" y="952.844" style="fill:#FFFFFF;" width="1.34" height="1.34"/>
							</g>
							<g>
								<path style="fill:#FFFFFF;" d="M511.332,953.392h-0.304c0-7.07-5.752-12.823-12.823-12.823
									c-7.07,0-12.823,5.753-12.823,12.823h-0.305c0-3.506,1.365-6.803,3.845-9.282c2.479-2.48,5.776-3.845,9.282-3.845
									c3.507,0,6.803,1.365,9.283,3.845C509.966,946.589,511.332,949.885,511.332,953.392"/>
							</g>
						</g>
						<g>
							<rect x="497.534" y="939.747" style="fill:#FFFFFF;" width="1.34" height="1.34"/>
						</g>
						<g>
							<rect x="489.006" y="940.264" style="fill:#FFFFFF;" width="18.397" height="0.304"/>
						</g>
						<g>
							<path style="fill:#FFFFFF;" d="M489.494,940.477c0,0.235-0.191,0.427-0.427,0.427c-0.235,0-0.426-0.191-0.426-0.427
								c0-0.235,0.191-0.427,0.426-0.427C489.303,940.051,489.494,940.242,489.494,940.477"/>
						</g>
						<g>
							<path style="fill:#FFFFFF;" d="M507.829,940.477c0,0.235-0.191,0.427-0.427,0.427c-0.235,0-0.426-0.191-0.426-0.427
								c0-0.235,0.191-0.427,0.426-0.427C507.639,940.051,507.829,940.242,507.829,940.477"/>
						</g>
					</g>
				</g>
				<g>
					<path style="fill:#FFFFFF;" d="M640.109,964.991c0,3.395-5.146,3.395-5.146,0C634.963,961.599,640.109,961.599,640.109,964.991
						z"/>
				</g>
				<g>
					<g>
						<g>
							<path style="fill:#FFFFFF;" d="M307.849,950.056l3.859,13.253l4.038-13.253h4.823l-6.145,17.721h-5.073l-1.822-5.216
								l-1.572-5.896l-1.571,5.896l-1.822,5.216h-5.073l-6.18-17.721h4.858l4.038,13.253l3.822-13.253H307.849z"/>
						</g>
						<g>
							<path style="fill:#FFFFFF;" d="M340.449,950.056l3.859,13.253l4.038-13.253h4.823l-6.145,17.721h-5.073l-1.822-5.216
								l-1.571-5.896l-1.572,5.896l-1.822,5.216h-5.073l-6.18-17.721h4.858l4.038,13.253l3.822-13.253H340.449z"/>
						</g>
						<g>
							<path style="fill:#FFFFFF;" d="M373.048,950.056l3.859,13.253l4.038-13.253h4.823l-6.145,17.721h-5.073l-1.822-5.216
								l-1.572-5.896l-1.571,5.896l-1.822,5.216h-5.073l-6.18-17.721h4.858l4.038,13.253l3.822-13.253H373.048z"/>
						</g>
					</g>
					<g>
						<path style="fill:#FFFFFF;" d="M393.123,965.231c0,3.395-5.146,3.395-5.146,0
							C387.977,961.839,393.123,961.839,393.123,965.231z"/>
					</g>
					<g>
						<path style="fill:#FFFFFF;" d="M658.296,964.991c-2.036,2.001-4.177,2.787-6.787,2.787c-5.108,0-9.361-3.072-9.361-9.323
							c0-6.251,4.253-9.326,9.361-9.326c2.502,0,4.43,0.716,6.359,2.609l-2.752,2.894c-1.036-0.931-2.321-1.393-3.534-1.393
							c-2.929,0-5.073,2.144-5.073,5.216c0,3.357,2.286,5.143,5,5.143c1.393,0,2.787-0.393,3.857-1.463L658.296,964.991z"/>
					</g>
					<g>
						<path style="fill:#FFFFFF;" d="M678.097,958.597c0,5.073-3.465,9.181-9.181,9.181c-5.716,0-9.146-4.107-9.146-9.181
							c0-5.038,3.502-9.181,9.111-9.181S678.097,953.558,678.097,958.597z M664.128,958.597c0,2.679,1.609,5.181,4.788,5.181
							c3.179,0,4.788-2.502,4.788-5.181c0-2.644-1.859-5.216-4.788-5.216C665.772,953.381,664.128,955.953,664.128,958.597z"/>
					</g>
					<g>
						<path style="fill:#FFFFFF;" d="M692.828,967.777v-9.431c0-2.324-1.216-4.43-3.61-4.43c-2.356,0-3.75,2.106-3.75,4.43v9.431
							h-4.36v-17.649h4.038l0.323,2.144c0.928-1.786,2.964-2.429,4.643-2.429c2.109,0,4.218,0.858,5.216,3.287
							c1.574-2.502,3.61-3.217,5.896-3.217c5,0,7.467,3.075,7.467,8.36v9.504h-4.361v-9.504c0-2.321-0.963-4.288-3.322-4.288
							c-2.356,0-3.822,2.036-3.822,4.36v9.431H692.828z"/>
					</g>
				</g>
			</g>
		</g>
		<g style="opacity:0.61;">
			<g>
				<g>
					<path style="fill:#FFFFFF;" d="M708.973,873.313c-0.013-2.665-2.087-4.618-4.766-4.659c-2.011-0.031-1.81,0.261-1.815-1.887
						c-0.006-2.389-0.015-4.778,0.006-7.166c0.007-0.824-0.243-1.505-0.787-2.125c-5.098-5.81-10.184-11.63-15.281-17.441
						c-0.262-0.299-0.599-0.532-0.901-0.796c-13.528,0-27.055,0-40.583,0c-1.729,0.639-2.482,1.889-2.478,3.72
						c0.021,8.159,0.009,16.318,0.008,24.478c0,1.21-0.007,1.281-1.197,1.201c-3.258-0.221-5.477,2.147-5.436,5.426
						c0.096,7.568,0.028,15.137,0.031,22.706c0.001,3.44,1.887,5.32,5.333,5.331c1.267,0.004,1.268,0.004,1.268,1.306
						c0.001,4.831-0.002,9.662,0.002,14.493c0.002,2.595,1.262,3.855,3.85,3.855c17.446,0.001,34.891,0.001,52.337,0
						c2.543,0,3.822-1.268,3.824-3.799c0.005-4.912,0.001-9.823,0.003-14.735c0-1.115,0.005-1.112,1.131-1.121
						c0.589-0.005,1.177,0.017,1.761-0.127c2.169-0.535,3.68-2.273,3.689-4.503C709.007,889.416,709.011,881.364,708.973,873.313z
						 M647.034,842.535c11.619-0.001,23.237-0.001,34.856,0c1.193,0,1.206,0.015,1.207,1.222c0.001,4.884-0.002,9.767,0.002,14.651
						c0.001,1.765,0.543,2.305,2.307,2.306c4.159,0.003,8.318,0,12.477,0.003c0.997,0.001,1.044,0.046,1.046,1.052
						c0.006,1.932,0.005,3.864,0,5.796c-0.003,1.038-0.051,1.085-1.098,1.085c-8.479,0.002-16.958,0.001-25.438,0.001
						c-8.452,0-16.905,0-25.357,0c-1.198,0-1.202-0.003-1.202-1.221c-0.001-7.889-0.001-15.778,0-23.667
						C645.835,842.544,645.844,842.535,647.034,842.535z M697.728,917.465c-8.454,0.001-16.908,0.001-25.362,0.001
						c-8.427,0-16.854,0.001-25.281,0c-1.245,0-1.249-0.003-1.249-1.262c-0.001-4.348-0.003-8.696,0.001-13.043
						c0.001-1.01,0.051-1.059,1.041-1.059c16.989-0.002,33.977-0.002,50.966,0c1.041,0,1.086,0.044,1.087,1.094
						c0.003,4.348,0.003,8.696,0.001,13.043C698.931,917.453,698.92,917.465,697.728,917.465z"/>
				</g>
				<g>
					<g>
						<rect x="668.546" y="842.298" style="fill:#FFFFFF;" width="3.825" height="2.295"/>
					</g>
					<g>
						<rect x="664.722" y="844.593" style="fill:#FFFFFF;" width="3.825" height="2.295"/>
					</g>
					<g>
						<rect x="668.546" y="846.888" style="fill:#FFFFFF;" width="3.825" height="2.295"/>
					</g>
					<g>
						<rect x="664.722" y="849.183" style="fill:#FFFFFF;" width="3.825" height="2.295"/>
					</g>
					<g>
						<rect x="668.546" y="851.477" style="fill:#FFFFFF;" width="3.825" height="2.295"/>
					</g>
					<g>
						<rect x="664.722" y="853.772" style="fill:#FFFFFF;" width="3.825" height="2.295"/>
					</g>
					<g>
						<rect x="668.546" y="856.067" style="fill:#FFFFFF;" width="3.825" height="2.295"/>
					</g>
					<g>
						<rect x="664.722" y="858.362" style="fill:#FFFFFF;" width="3.825" height="2.295"/>
					</g>
					<g>
						<rect x="668.546" y="860.657" style="fill:#FFFFFF;" width="3.825" height="2.295"/>
					</g>
					<g>
						<rect x="664.722" y="862.952" style="fill:#FFFFFF;" width="3.825" height="2.295"/>
					</g>
					<g>
						<rect x="668.546" y="865.247" style="fill:#FFFFFF;" width="3.825" height="2.295"/>
					</g>
					<g>
						<rect x="664.722" y="867.541" style="fill:#FFFFFF;" width="3.825" height="2.295"/>
					</g>
				</g>
			</g>
			<g>
				<path style="fill:#FFFFFF;" d="M364.231,873.313c-0.013-2.665-2.087-4.618-4.766-4.659c-2.011-0.031-1.81,0.261-1.815-1.887
					c-0.006-2.389-0.015-4.778,0.006-7.166c0.007-0.824-0.243-1.505-0.787-2.125c-5.098-5.81-10.184-11.63-15.281-17.441
					c-0.262-0.299-0.599-0.532-0.901-0.796c-13.528,0-27.055,0-40.583,0c-1.729,0.639-2.482,1.889-2.478,3.72
					c0.021,8.159,0.009,16.318,0.008,24.478c0,1.21-0.007,1.281-1.197,1.201c-3.258-0.221-5.477,2.147-5.436,5.426
					c0.096,7.568,0.028,15.137,0.031,22.706c0.001,3.44,1.887,5.32,5.333,5.331c1.267,0.004,1.268,0.004,1.268,1.306
					c0.001,4.831-0.002,9.662,0.002,14.493c0.002,2.595,1.262,3.855,3.85,3.855c17.446,0.001,34.891,0.001,52.337,0
					c2.543,0,3.822-1.268,3.824-3.799c0.005-4.912,0.001-9.823,0.003-14.735c0-1.115,0.004-1.112,1.131-1.121
					c0.589-0.005,1.177,0.017,1.761-0.127c2.169-0.535,3.68-2.273,3.689-4.503C364.264,889.416,364.269,881.364,364.231,873.313z
					 M302.292,842.535c11.619-0.001,23.237-0.001,34.856,0c1.192,0,1.206,0.015,1.207,1.222c0.001,4.884-0.001,9.767,0.002,14.651
					c0.001,1.765,0.543,2.305,2.307,2.306c4.159,0.003,8.318,0,12.477,0.003c0.997,0.001,1.044,0.046,1.046,1.052
					c0.006,1.932,0.005,3.864,0,5.796c-0.003,1.038-0.051,1.085-1.098,1.085c-8.479,0.002-16.958,0.001-25.438,0.001
					c-8.452,0-16.905,0-25.357,0c-1.198,0-1.202-0.003-1.202-1.221c-0.001-7.889-0.001-15.778,0-23.667
					C301.093,842.544,301.102,842.535,302.292,842.535z M352.985,917.465c-8.454,0.001-16.908,0.001-25.362,0.001
					c-8.427,0-16.854,0.001-25.281,0c-1.245,0-1.249-0.003-1.249-1.262c-0.001-4.348-0.003-8.696,0.001-13.043
					c0.001-1.01,0.051-1.059,1.041-1.059c16.989-0.002,33.977-0.002,50.966,0c1.041,0,1.086,0.044,1.087,1.094
					c0.003,4.348,0.003,8.696,0.001,13.043C354.188,917.453,354.177,917.465,352.985,917.465z"/>
			</g>
			<g>
				<path style="fill:#FFFFFF;" d="M303.581,893.711v-17.193h6.051c0.816,0,1.581,0.132,2.293,0.396
					c0.712,0.264,1.333,0.636,1.861,1.117c0.527,0.48,0.944,1.053,1.248,1.717c0.304,0.665,0.456,1.397,0.456,2.198
					c0,0.816-0.152,1.557-0.456,2.221s-0.721,1.236-1.248,1.717c-0.529,0.48-1.149,0.852-1.861,1.117
					c-0.713,0.264-1.477,0.396-2.293,0.396h-2.809v6.315H303.581z M309.68,884.323c0.848,0,1.489-0.241,1.921-0.721
					c0.432-0.48,0.648-1.032,0.648-1.656c0-0.304-0.052-0.601-0.156-0.889c-0.105-0.288-0.264-0.54-0.48-0.756
					c-0.216-0.217-0.484-0.388-0.805-0.516c-0.32-0.129-0.696-0.193-1.128-0.193h-2.857v4.731H309.68z"/>
				<path style="fill:#FFFFFF;" d="M317.796,876.518h3.77l6.916,11.526h0.191l-0.191-3.314v-8.212h3.217v17.193h-3.409l-7.3-12.174
					h-0.191l0.191,3.314v8.86h-3.193V876.518z"/>
				<path style="fill:#FFFFFF;" d="M343.08,884.274h8.429c0.048,0.193,0.087,0.425,0.12,0.697c0.031,0.272,0.048,0.544,0.048,0.816
					c0,1.104-0.167,2.145-0.504,3.121c-0.336,0.977-0.865,1.849-1.585,2.618c-0.768,0.817-1.69,1.449-2.761,1.897
					c-1.073,0.448-2.298,0.672-3.674,0.672c-1.249,0-2.426-0.224-3.53-0.672c-1.104-0.447-2.065-1.072-2.881-1.873
					c-0.816-0.8-1.465-1.749-1.945-2.845c-0.48-1.097-0.72-2.293-0.72-3.59c0-1.296,0.24-2.493,0.72-3.589s1.129-2.045,1.945-2.845
					c0.816-0.8,1.777-1.425,2.881-1.873c1.104-0.448,2.281-0.672,3.53-0.672c1.392,0,2.637,0.24,3.734,0.72
					c1.097,0.48,2.036,1.144,2.821,1.993l-2.232,2.185c-0.562-0.592-1.185-1.044-1.874-1.357s-1.513-0.468-2.473-0.468
					c-0.786,0-1.53,0.14-2.234,0.421c-0.705,0.28-1.321,0.676-1.85,1.188c-0.527,0.512-0.949,1.133-1.259,1.861
					c-0.312,0.728-0.469,1.541-0.469,2.437c0,0.897,0.157,1.709,0.469,2.438c0.311,0.728,0.735,1.349,1.271,1.861
					c0.536,0.513,1.156,0.909,1.862,1.189c0.704,0.281,1.457,0.421,2.258,0.421c0.911,0,1.684-0.132,2.317-0.396
					c0.632-0.264,1.171-0.604,1.62-1.021c0.321-0.288,0.598-0.652,0.829-1.092s0.412-0.932,0.541-1.477h-5.404V884.274z"/>
			</g>
			<g>
				<path style="fill:#FFFFFF;" d="M443.437,873.313c-0.013-2.665-2.087-4.618-4.766-4.659c-2.011-0.031-1.81,0.261-1.815-1.887
					c-0.006-2.389-0.015-4.778,0.006-7.166c0.007-0.824-0.243-1.505-0.787-2.125c-5.098-5.81-10.184-11.63-15.281-17.441
					c-0.262-0.299-0.599-0.532-0.901-0.796c-13.528,0-27.055,0-40.583,0c-1.729,0.639-2.482,1.889-2.478,3.72
					c0.021,8.159,0.009,16.318,0.008,24.478c0,1.21-0.007,1.281-1.197,1.201c-3.258-0.221-5.477,2.147-5.436,5.426
					c0.096,7.568,0.028,15.137,0.031,22.706c0.001,3.44,1.887,5.32,5.333,5.331c1.267,0.004,1.268,0.004,1.268,1.306
					c0.001,4.831-0.002,9.662,0.002,14.493c0.002,2.595,1.262,3.855,3.85,3.855c17.446,0.001,34.891,0.001,52.337,0
					c2.543,0,3.822-1.268,3.824-3.799c0.005-4.912,0.001-9.823,0.003-14.735c0-1.115,0.004-1.112,1.131-1.121
					c0.589-0.005,1.177,0.017,1.761-0.127c2.169-0.535,3.68-2.273,3.689-4.503C443.47,889.416,443.475,881.364,443.437,873.313z
					 M381.498,842.535c11.619-0.001,23.237-0.001,34.856,0c1.192,0,1.206,0.015,1.207,1.222c0.001,4.884-0.001,9.767,0.002,14.651
					c0.001,1.765,0.543,2.305,2.307,2.306c4.159,0.003,8.318,0,12.477,0.003c0.997,0.001,1.044,0.046,1.046,1.052
					c0.006,1.932,0.005,3.864,0,5.796c-0.003,1.038-0.051,1.085-1.098,1.085c-8.479,0.002-16.958,0.001-25.438,0.001
					c-8.452,0-16.905,0-25.357,0c-1.198,0-1.202-0.003-1.202-1.221c-0.001-7.889-0.001-15.778,0-23.667
					C380.299,842.544,380.308,842.535,381.498,842.535z M432.192,917.465c-8.454,0.001-16.908,0.001-25.362,0.001
					c-8.427,0-16.854,0.001-25.281,0c-1.245,0-1.249-0.003-1.249-1.262c-0.001-4.348-0.002-8.696,0.001-13.043
					c0.001-1.01,0.051-1.059,1.041-1.059c16.989-0.002,33.977-0.002,50.966,0c1.041,0,1.086,0.044,1.087,1.094
					c0.003,4.348,0.003,8.696,0.001,13.043C433.394,917.453,433.384,917.465,432.192,917.465z"/>
			</g>
			<g>
				<path style="fill:#FFFFFF;" d="M402.272,876.518h3.698l6.46,17.193h-3.578l-1.416-4.106h-6.628l-1.417,4.106h-3.578
					L402.272,876.518z M406.379,886.628l-1.537-4.298l-0.625-2.089h-0.192l-0.625,2.089l-1.537,4.298H406.379z"/>
				<path style="fill:#FFFFFF;" d="M415.815,880.36c-0.273,0-0.533-0.052-0.781-0.156c-0.248-0.104-0.465-0.248-0.648-0.433
					c-0.184-0.184-0.328-0.396-0.432-0.636c-0.105-0.241-0.156-0.504-0.156-0.793s0.052-0.552,0.156-0.793
					c0.104-0.24,0.248-0.452,0.432-0.636c0.184-0.184,0.4-0.328,0.648-0.432c0.248-0.104,0.508-0.156,0.781-0.156
					c0.56,0,1.041,0.196,1.441,0.588c0.4,0.393,0.601,0.869,0.601,1.429s-0.201,1.037-0.601,1.428
					C416.856,880.165,416.375,880.36,415.815,880.36z M414.255,893.711v-11.766h3.145v11.766H414.255z"/>
			</g>
			<g>
				<path style="fill:#FFFFFF;" d="M524.043,873.313c-0.013-2.665-2.087-4.618-4.766-4.659c-2.011-0.031-1.81,0.261-1.815-1.887
					c-0.006-2.389-0.015-4.778,0.006-7.166c0.007-0.824-0.243-1.505-0.787-2.125c-5.098-5.81-10.184-11.63-15.281-17.441
					c-0.262-0.299-0.599-0.532-0.901-0.796c-13.528,0-27.055,0-40.583,0c-1.729,0.639-2.482,1.889-2.478,3.72
					c0.021,8.159,0.009,16.318,0.008,24.478c0,1.21-0.007,1.281-1.197,1.201c-3.258-0.221-5.477,2.147-5.436,5.426
					c0.096,7.568,0.028,15.137,0.031,22.706c0.001,3.44,1.887,5.32,5.333,5.331c1.267,0.004,1.268,0.004,1.268,1.306
					c0.001,4.831-0.002,9.662,0.002,14.493c0.002,2.595,1.262,3.855,3.85,3.855c17.446,0.001,34.891,0.001,52.337,0
					c2.543,0,3.822-1.268,3.824-3.799c0.005-4.912,0.001-9.823,0.003-14.735c0-1.115,0.004-1.112,1.131-1.121
					c0.589-0.005,1.177,0.017,1.761-0.127c2.169-0.535,3.68-2.273,3.689-4.503C524.076,889.416,524.081,881.364,524.043,873.313z
					 M462.104,842.535c11.619-0.001,23.237-0.001,34.856,0c1.192,0,1.206,0.015,1.207,1.222c0.001,4.884-0.001,9.767,0.002,14.651
					c0.001,1.765,0.543,2.305,2.307,2.306c4.159,0.003,8.318,0,12.477,0.003c0.997,0.001,1.044,0.046,1.046,1.052
					c0.006,1.932,0.005,3.864,0,5.796c-0.003,1.038-0.051,1.085-1.098,1.085c-8.479,0.002-16.958,0.001-25.438,0.001
					c-8.452,0-16.905,0-25.357,0c-1.198,0-1.202-0.003-1.202-1.221c-0.001-7.889-0.001-15.778,0-23.667
					C460.905,842.544,460.914,842.535,462.104,842.535z M512.798,917.465c-8.454,0.001-16.908,0.001-25.362,0.001
					c-8.427,0-16.854,0.001-25.281,0c-1.245,0-1.249-0.003-1.249-1.262c-0.001-4.348-0.002-8.696,0.001-13.043
					c0.001-1.01,0.051-1.059,1.041-1.059c16.989-0.002,33.977-0.002,50.966,0c1.041,0,1.086,0.044,1.087,1.094
					c0.003,4.348,0.003,8.696,0.001,13.043C514,917.453,513.989,917.465,512.798,917.465z"/>
			</g>
			<g>
				<path style="fill:#FFFFFF;" d="M470.308,894.095c-0.737,0-1.441-0.104-2.113-0.312c-0.672-0.208-1.289-0.52-1.849-0.936
					c-0.56-0.416-1.048-0.925-1.464-1.525c-0.417-0.601-0.745-1.301-0.985-2.101l3.049-1.201c0.224,0.864,0.616,1.581,1.177,2.149
					s1.297,0.852,2.209,0.852c0.336,0,0.66-0.044,0.973-0.132c0.312-0.087,0.592-0.216,0.84-0.384
					c0.248-0.168,0.444-0.38,0.589-0.636c0.144-0.256,0.216-0.552,0.216-0.888c0-0.32-0.056-0.608-0.168-0.865
					c-0.112-0.255-0.3-0.495-0.564-0.72c-0.264-0.224-0.609-0.44-1.033-0.648c-0.424-0.208-0.948-0.424-1.572-0.648l-1.056-0.384
					c-0.465-0.16-0.933-0.376-1.405-0.648c-0.472-0.272-0.9-0.6-1.284-0.985c-0.385-0.384-0.701-0.836-0.949-1.357
					c-0.249-0.52-0.372-1.108-0.372-1.765c0-0.672,0.132-1.301,0.396-1.885c0.264-0.584,0.64-1.096,1.129-1.537
					c0.488-0.44,1.072-0.784,1.753-1.032c0.681-0.248,1.437-0.372,2.269-0.372c0.864,0,1.612,0.116,2.245,0.348
					c0.633,0.232,1.168,0.528,1.609,0.888c0.44,0.36,0.796,0.757,1.068,1.189c0.272,0.433,0.472,0.84,0.601,1.225l-2.857,1.2
					c-0.161-0.48-0.453-0.913-0.876-1.297c-0.425-0.384-1.005-0.576-1.741-0.576c-0.704,0-1.289,0.164-1.753,0.492
					c-0.465,0.329-0.697,0.757-0.697,1.285c0,0.512,0.224,0.949,0.672,1.309c0.448,0.36,1.161,0.708,2.137,1.044l1.081,0.36
					c0.688,0.241,1.316,0.517,1.885,0.828c0.568,0.312,1.056,0.684,1.465,1.117c0.408,0.433,0.72,0.925,0.936,1.477
					c0.217,0.552,0.324,1.189,0.324,1.909c0,0.897-0.18,1.669-0.54,2.317c-0.36,0.648-0.82,1.181-1.38,1.597
					c-0.561,0.416-1.193,0.728-1.897,0.936C471.668,893.991,470.98,894.095,470.308,894.095z"/>
				<path style="fill:#FFFFFF;" d="M477.175,876.518h3.506l3.554,10.349l0.625,2.209h0.192l0.672-2.209l3.698-10.349h3.506
					l-6.268,17.193h-3.409L477.175,876.518z"/>
				<path style="fill:#FFFFFF;" d="M502.388,884.274h8.428c0.048,0.193,0.088,0.425,0.12,0.697c0.033,0.272,0.049,0.544,0.049,0.816
					c0,1.104-0.169,2.145-0.505,3.121c-0.336,0.977-0.864,1.849-1.585,2.618c-0.768,0.817-1.688,1.449-2.761,1.897
					c-1.073,0.448-2.298,0.672-3.674,0.672c-1.249,0-2.425-0.224-3.529-0.672c-1.105-0.447-2.066-1.072-2.882-1.873
					c-0.816-0.8-1.465-1.749-1.945-2.845c-0.48-1.097-0.72-2.293-0.72-3.59c0-1.296,0.241-2.493,0.72-3.589
					c0.48-1.097,1.129-2.045,1.945-2.845c0.816-0.8,1.777-1.425,2.882-1.873c1.104-0.448,2.28-0.672,3.529-0.672
					c1.392,0,2.637,0.24,3.734,0.72c1.097,0.48,2.038,1.144,2.822,1.993l-2.234,2.185c-0.56-0.592-1.185-1.044-1.874-1.357
					c-0.687-0.312-1.512-0.468-2.473-0.468c-0.784,0-1.528,0.14-2.234,0.421c-0.704,0.28-1.321,0.676-1.848,1.188
					c-0.528,0.512-0.949,1.133-1.261,1.861c-0.312,0.728-0.468,1.541-0.468,2.437c0,0.897,0.156,1.709,0.468,2.438
					c0.312,0.728,0.737,1.349,1.273,1.861c0.536,0.513,1.156,0.909,1.86,1.189c0.705,0.281,1.457,0.421,2.258,0.421
					c0.913,0,1.685-0.132,2.317-0.396c0.632-0.264,1.173-0.604,1.621-1.021c0.32-0.288,0.596-0.652,0.828-1.092
					c0.233-0.44,0.412-0.932,0.541-1.477h-5.402V884.274z"/>
			</g>
			<g>
				<path style="fill:#FFFFFF;" d="M602.976,873.313c-0.013-2.665-2.087-4.618-4.766-4.659c-2.011-0.031-1.81,0.261-1.815-1.887
					c-0.006-2.389-0.015-4.778,0.006-7.166c0.007-0.824-0.243-1.505-0.787-2.125c-5.098-5.81-10.184-11.63-15.281-17.441
					c-0.262-0.299-0.599-0.532-0.901-0.796c-13.528,0-27.055,0-40.583,0c-1.729,0.639-2.482,1.889-2.478,3.72
					c0.021,8.159,0.009,16.318,0.008,24.478c0,1.21-0.007,1.281-1.197,1.201c-3.258-0.221-5.477,2.147-5.436,5.426
					c0.096,7.568,0.028,15.137,0.031,22.706c0.001,3.44,1.887,5.32,5.333,5.331c1.267,0.004,1.268,0.004,1.268,1.306
					c0.001,4.831-0.002,9.662,0.002,14.493c0.002,2.595,1.262,3.855,3.85,3.855c17.446,0.001,34.891,0.001,52.337,0
					c2.543,0,3.822-1.268,3.824-3.799c0.005-4.912,0.001-9.823,0.003-14.735c0-1.115,0.005-1.112,1.131-1.121
					c0.589-0.005,1.178,0.017,1.761-0.127c2.169-0.535,3.68-2.273,3.689-4.503C603.01,889.416,603.015,881.364,602.976,873.313z
					 M541.037,842.535c11.619-0.001,23.237-0.001,34.856,0c1.193,0,1.206,0.015,1.207,1.222c0.001,4.884-0.002,9.767,0.002,14.651
					c0.001,1.765,0.543,2.305,2.307,2.306c4.159,0.003,8.318,0,12.477,0.003c0.997,0.001,1.044,0.046,1.046,1.052
					c0.006,1.932,0.005,3.864,0,5.796c-0.003,1.038-0.051,1.085-1.098,1.085c-8.479,0.002-16.958,0.001-25.438,0.001
					c-8.452,0-16.905,0-25.357,0c-1.198,0-1.202-0.003-1.202-1.221c-0.001-7.889-0.001-15.778,0-23.667
					C539.838,842.544,539.847,842.535,541.037,842.535z M591.731,917.465c-8.454,0.001-16.908,0.001-25.362,0.001
					c-8.427,0-16.854,0.001-25.281,0c-1.245,0-1.249-0.003-1.249-1.262c-0.001-4.348-0.003-8.696,0.001-13.043
					c0.001-1.01,0.051-1.059,1.041-1.059c16.989-0.002,33.977-0.002,50.966,0c1.041,0,1.086,0.044,1.087,1.094
					c0.003,4.348,0.003,8.696,0.001,13.043C592.934,917.453,592.923,917.465,591.731,917.465z"/>
			</g>
			<g>
				<path style="fill:#FFFFFF;" d="M549.998,879.592v3.986h6.891v3.074h-6.891v3.986h7.659v3.073h-10.901v-17.193h10.901v3.073
					H549.998z"/>
				<path style="fill:#FFFFFF;" d="M560.635,893.711v-17.193h6.051c0.816,0,1.581,0.132,2.293,0.396
					c0.712,0.264,1.333,0.636,1.861,1.117c0.528,0.48,0.944,1.053,1.249,1.717c0.304,0.665,0.456,1.397,0.456,2.198
					c0,0.816-0.152,1.557-0.456,2.221c-0.305,0.664-0.721,1.236-1.249,1.717c-0.528,0.48-1.149,0.852-1.861,1.117
					c-0.713,0.264-1.477,0.396-2.293,0.396h-2.809v6.315H560.635z M566.735,884.323c0.848,0,1.489-0.241,1.921-0.721
					c0.432-0.48,0.648-1.032,0.648-1.656c0-0.304-0.052-0.601-0.156-0.889c-0.105-0.288-0.264-0.54-0.48-0.756
					c-0.216-0.217-0.484-0.388-0.805-0.516c-0.32-0.129-0.696-0.193-1.128-0.193h-2.857v4.731H566.735z"/>
				<path style="fill:#FFFFFF;" d="M580.109,894.095c-0.737,0-1.441-0.104-2.113-0.312c-0.672-0.208-1.289-0.52-1.849-0.936
					c-0.56-0.416-1.049-0.925-1.465-1.525c-0.416-0.601-0.744-1.301-0.985-2.101l3.049-1.201c0.224,0.864,0.616,1.581,1.177,2.149
					c0.56,0.568,1.296,0.852,2.209,0.852c0.336,0,0.66-0.044,0.973-0.132c0.312-0.087,0.592-0.216,0.84-0.384
					c0.248-0.168,0.444-0.38,0.588-0.636c0.144-0.256,0.217-0.552,0.217-0.888c0-0.32-0.057-0.608-0.168-0.865
					c-0.112-0.255-0.3-0.495-0.565-0.72c-0.264-0.224-0.608-0.44-1.032-0.648c-0.424-0.208-0.949-0.424-1.573-0.648l-1.056-0.384
					c-0.465-0.16-0.932-0.376-1.404-0.648c-0.473-0.272-0.901-0.6-1.285-0.985c-0.384-0.384-0.701-0.836-0.949-1.357
					c-0.248-0.52-0.372-1.108-0.372-1.765c0-0.672,0.132-1.301,0.396-1.885c0.264-0.584,0.64-1.096,1.129-1.537
					c0.489-0.44,1.073-0.784,1.753-1.032c0.68-0.248,1.437-0.372,2.269-0.372c0.865,0,1.613,0.116,2.246,0.348
					c0.632,0.232,1.168,0.528,1.609,0.888c0.44,0.36,0.796,0.757,1.068,1.189c0.272,0.433,0.472,0.84,0.601,1.225l-2.857,1.2
					c-0.161-0.48-0.453-0.913-0.877-1.297s-1.005-0.576-1.741-0.576c-0.705,0-1.289,0.164-1.753,0.492
					c-0.465,0.329-0.696,0.757-0.696,1.285c0,0.512,0.224,0.949,0.672,1.309c0.448,0.36,1.16,0.708,2.137,1.044l1.08,0.36
					c0.689,0.241,1.317,0.517,1.885,0.828c0.568,0.312,1.056,0.684,1.465,1.117c0.408,0.433,0.72,0.925,0.936,1.477
					c0.216,0.552,0.324,1.189,0.324,1.909c0,0.897-0.18,1.669-0.54,2.317c-0.36,0.648-0.821,1.181-1.38,1.597
					c-0.561,0.416-1.193,0.728-1.897,0.936C581.47,893.991,580.782,894.095,580.109,894.095z"/>
			</g>
			<g>
				<path style="fill:#FFFFFF;" d="M655.431,890.445l8.716-10.854h-8.332v-3.073h12.103v3.266l-8.621,10.854h8.716v3.073h-12.582
					V890.445z"/>
				<path style="fill:#FFFFFF;" d="M670.702,876.518h3.242v17.193h-3.242V876.518z"/>
				<path style="fill:#FFFFFF;" d="M677.402,893.711v-17.193h6.051c0.817,0,1.581,0.132,2.293,0.396
					c0.712,0.264,1.333,0.636,1.861,1.117s0.944,1.053,1.249,1.717c0.304,0.665,0.456,1.397,0.456,2.198
					c0,0.816-0.152,1.557-0.456,2.221c-0.305,0.664-0.721,1.236-1.249,1.717s-1.149,0.852-1.861,1.117
					c-0.713,0.264-1.477,0.396-2.293,0.396h-2.809v6.315H677.402z M683.501,884.323c0.848,0,1.489-0.241,1.921-0.721
					c0.433-0.48,0.648-1.032,0.648-1.656c0-0.304-0.052-0.601-0.156-0.889c-0.105-0.288-0.264-0.54-0.48-0.756
					c-0.216-0.217-0.484-0.388-0.805-0.516c-0.32-0.129-0.696-0.193-1.128-0.193h-2.857v4.731H683.501z"/>
			</g>
		</g>
		<g style="opacity:0.61;">
			<path style="fill:#FFFFFF;" d="M609.144,877.605h19.739v4.881h-19.739V877.605z M609.144,886.02h19.739v4.884h-19.739V886.02z"/>
		</g>
	</g>
	<g style="opacity:0.61;">
		<path style="fill:#FFFFFF;" d="M297,976.896h3.498c2.75,0,4.603,1.768,4.603,4.297s-1.854,4.296-4.603,4.296H297V976.896z
			 M300.449,984.703c2.283,0,3.756-1.448,3.756-3.51s-1.473-3.511-3.756-3.511h-2.541v7.021H300.449z"/>
		<path style="fill:#FFFFFF;" d="M315.251,981.193c0-2.504,1.915-4.37,4.517-4.37c2.577,0,4.505,1.853,4.505,4.37
			c0,2.516-1.927,4.369-4.505,4.369C317.166,985.562,315.251,983.697,315.251,981.193z M323.365,981.193
			c0-2.05-1.534-3.56-3.596-3.56c-2.075,0-3.621,1.51-3.621,3.56c0,2.049,1.546,3.559,3.621,3.559
			C321.831,984.752,323.365,983.242,323.365,981.193z"/>
		<path style="fill:#FFFFFF;" d="M346.724,976.896l-2.897,8.593h-0.957l-2.516-7.328l-2.529,7.328h-0.945l-2.897-8.593h0.933
			l2.479,7.389l2.566-7.389h0.847l2.529,7.426l2.516-7.426H346.724z"/>
		<path style="fill:#FFFFFF;" d="M364.435,976.896v8.593h-0.749l-5.524-6.972v6.972h-0.908v-8.593h0.749l5.536,6.973v-6.973H364.435
			z"/>
		<path style="fill:#FFFFFF;" d="M376.108,976.896h0.908v7.807h4.812v0.786h-5.72V976.896z"/>
		<path style="fill:#FFFFFF;" d="M391.279,981.193c0-2.504,1.915-4.37,4.517-4.37c2.577,0,4.505,1.853,4.505,4.37
			c0,2.516-1.927,4.369-4.505,4.369C393.194,985.562,391.279,983.697,391.279,981.193z M399.392,981.193
			c0-2.05-1.534-3.56-3.596-3.56c-2.075,0-3.621,1.51-3.621,3.56c0,2.049,1.546,3.559,3.621,3.559
			C397.858,984.752,399.392,983.242,399.392,981.193z"/>
		<path style="fill:#FFFFFF;" d="M416.478,983.193h-4.787l-1.031,2.295h-0.945l3.928-8.593h0.896l3.928,8.593h-0.957
			L416.478,983.193z M416.147,982.457l-2.062-4.615l-2.062,4.615H416.147z"/>
		<path style="fill:#FFFFFF;" d="M428.765,976.896h3.498c2.75,0,4.603,1.768,4.603,4.297s-1.854,4.296-4.603,4.296h-3.498V976.896z
			 M432.214,984.703c2.283,0,3.756-1.448,3.756-3.51s-1.473-3.511-3.756-3.511h-2.541v7.021H432.214z"/>
		<path style="fill:#FFFFFF;" d="M465.256,983.193h-4.787l-1.031,2.295h-0.945l3.928-8.593h0.896l3.928,8.593h-0.957
			L465.256,983.193z M464.925,982.457l-2.062-4.615l-2.062,4.615H464.925z"/>
		<path style="fill:#FFFFFF;" d="M477.543,976.896h0.908v7.807h4.812v0.786h-5.72V976.896z"/>
		<path style="fill:#FFFFFF;" d="M493.647,976.896h0.908v7.807h4.812v0.786h-5.72V976.896z"/>
		<path style="fill:#FFFFFF;" d="M522.749,977.682v3.376h4.443v0.786h-4.443v3.646h-0.909v-8.593h5.891v0.786H522.749z"/>
		<path style="fill:#FFFFFF;" d="M538.485,976.896h0.909v8.593h-0.909V976.896z"/>
		<path style="fill:#FFFFFF;" d="M551.067,976.896h0.909v7.807h4.811v0.786h-5.72V976.896z"/>
		<path style="fill:#FFFFFF;" d="M573.246,984.703v0.786h-6.076v-8.593h5.891v0.786h-4.983v3.056h4.443v0.774h-4.443v3.191H573.246z
			"/>
		<path style="fill:#FFFFFF;" d="M597.255,977.682v3.376h4.443v0.786h-4.443v3.646h-0.909v-8.593h5.891v0.786H597.255z"/>
		<path style="fill:#FFFFFF;" d="M612.119,981.193c0-2.504,1.915-4.37,4.517-4.37c2.577,0,4.505,1.853,4.505,4.37
			c0,2.516-1.927,4.369-4.505,4.369C614.034,985.562,612.119,983.697,612.119,981.193z M620.232,981.193
			c0-2.05-1.534-3.56-3.596-3.56c-2.075,0-3.622,1.51-3.622,3.56c0,2.049,1.547,3.559,3.622,3.559
			C618.698,984.752,620.232,983.242,620.232,981.193z"/>
		<path style="fill:#FFFFFF;" d="M637.919,985.489l-1.963-2.762c-0.222,0.024-0.442,0.037-0.688,0.037h-2.307v2.725h-0.909v-8.593
			h3.216c2.185,0,3.511,1.105,3.511,2.946c0,1.351-0.712,2.295-1.964,2.7l2.099,2.946H637.919z M637.871,979.842
			c0-1.375-0.909-2.161-2.627-2.161h-2.283v4.309h2.283C636.962,981.99,637.871,981.193,637.871,979.842z"/>
		<path style="fill:#FFFFFF;" d="M658.724,976.896v8.593h-0.871v-6.874l-3.376,5.782h-0.429l-3.376-5.745v6.837h-0.872v-8.593h0.749
			l3.732,6.371l3.695-6.371H658.724z"/>
		<path style="fill:#FFFFFF;" d="M675.787,983.193h-4.788l-1.031,2.295h-0.946l3.928-8.593h0.896l3.928,8.593h-0.957
			L675.787,983.193z M675.455,982.457l-2.062-4.615l-2.062,4.615H675.455z"/>
		<path style="fill:#FFFFFF;" d="M689.312,977.682h-3.02v-0.786h6.948v0.786h-3.02v7.807h-0.908V977.682z"/>
		<path style="fill:#FFFFFF;" d="M702.605,984.445l0.356-0.7c0.614,0.601,1.706,1.043,2.835,1.043c1.608,0,2.308-0.675,2.308-1.522
			c0-2.357-5.29-0.908-5.29-4.087c0-1.265,0.982-2.357,3.167-2.357c0.97,0,1.976,0.282,2.664,0.761l-0.307,0.724
			c-0.737-0.479-1.596-0.712-2.357-0.712c-1.571,0-2.271,0.7-2.271,1.559c0,2.357,5.29,0.933,5.29,4.063
			c0,1.265-1.006,2.344-3.204,2.344C704.508,985.562,703.243,985.108,702.605,984.445z"/>
	</g>
</g>
<g>
</g>
<g>
	<path style="fill-rule:evenodd;clip-rule:evenodd;" d="M638.667,549.697l0.172-0.685L638.667,549.697L638.667,549.697z
		 M578.435,596.214c-20.769,0-7.227-45.896-3.622-56.2c3.846-10.984,14.394-33.805,23.468-40.559
		c10.431-7.78,21.941-7.735,34.416-5.919c2.777,0.393,14.738,2.943,17.431,4.223l-4.366,21.766l-7.094,14.252
		c-2.408,4.632-9.393,15.888-12.34,19.826l-13.785,17.744l-12.837,13.959C595.203,589.808,584.782,596.214,578.435,596.214
		L578.435,596.214z M638.667,549.697c0,2.066-2.911,15.895-3.548,19.095c-1.244,6.319-2.352,12.507-3.658,18.956
		c-2.56,12.65,0.876,27.866,15.78,27.919c14.503,0.042,27.592-9.054,36.759-16.809c3.248-2.745,4.284-4.005,7.317-7.01
		c0.997-1.004,4.674-5.328,5.067-6.413c0.283-0.822,1.533-8.736,1.533-9.928l-7.462,7.82c-0.048,0.052-0.113,0.13-0.14,0.176
		c-0.334,0.318,0,0.029-0.502,0.471c-4.133,3.567-7.55,7.433-12.67,10.902c-4.275,2.927-13.237,9.278-18.689,6.081
		c-5.729-3.362-2.189-16.688-1.227-21.551c0.694-3.548,1.57-7.261,2.335-11.042c3.672-18.559,7.962-36.972,11.63-55.282
		l6.975-33.476c-3.567,0-7.361-0.595-9.555-0.66c-13.991-0.701-28.601-1.374-42.471,0.878c-7.956,1.283-14.889,3.261-21.347,6.048
		c-5.046,2.167-10.983,5.536-15.397,8.836l-5.677,4.506c-5.744,4.327-13.192,11.581-17.497,16.918
		c-11.6,14.41-18.627,27.73-22.903,45.928c-3.178,13.583-3.914,32.951,5.263,45.227c10.379,13.904,26.355,8.596,38.876,1.14
		c3.467-2.066,6.649-4.678,9.772-7.134c0.779-0.558,1.13-1.017,1.88-1.621c4.088-3.303,6.905-6.351,10.632-10.064l6.514-7.192
		c6.16-7.273,16.277-21.558,21.01-30.601C637.843,550.74,637.779,550.331,638.667,549.697L638.667,549.697z"/>
	<path style="fill-rule:evenodd;clip-rule:evenodd;" d="M311.444,450.27l-21.853-0.198v-12.871l24.394-0.159
		c0.036-2.164,0.891-5.331,1.295-7.446c3.746-18.88,3.318-30.612,15.624-45.867c8.967-11.084,24.334-14.807,38.312-10.675
		c2.431,0.74,4.274,1.517,6.353,2.569l5.955,2.972l18.88-18.721c-1.782-0.13-4.889-0.744-6.536-0.949
		c-21.913-1.14-41.471,0.441-60.906,12.189c-21.726,13.153-37.378,37.095-42.741,61.775c-1.158,5.341-0.462,4.136-2.98,4.019
		l-30.029-0.049c-1.673,0.081-1.567,0.231-1.579,1.92l0.045,11.504h31.217c0,1.816-2.096,12.257-2.548,14.986
		c-0.813,4.918-1.736,9.795-2.676,14.83c-3.685,19.424-6.855,40.562-10.622,59.797c-0.989,5.009-1.798,9.885-2.641,14.895
		c-0.824,5.023-1.806,9.977-2.727,15.1c-4.769,26.551-7.806,63.578-38.125,67.33c-12.303,1.537-20.321-1.666-30.514-4.041
		l-3.779,4.506c-1.288,1.591-2.699,2.911-3.998,4.59l-6.828,7.845c-0.853,1.079-1.172,1.082-1.297,2.589
		c15.807,0,31.719,1.946,46.858-3.567c1.251-0.452,2.396-0.887,3.688-1.394c7.736-3.073,13.244-6.91,19.569-11.978l5.235-4.958
		c1.561-2.03,4.527-5.025,7.282-8.657c1.575-2.063,2.823-4.11,4.282-6.257c1.393-2.108,2.482-4.113,3.772-6.409
		c11.39-20.385,18.584-48.096,23.108-70.865c1.126-5.626,2.431-11.873,3.394-17.649c2.893-17.416,6.88-35.647,9.833-52.937
		L311.444,450.27L311.444,450.27z"/>
	<path style="fill-rule:evenodd;clip-rule:evenodd;" d="M311.444,450.27l502.141,0.013L819,436.903l-92.084-0.094l-4.474,0.199
		c-3.917-0.501-203.253-0.104-204.557-0.104c-63.804,0-127.642,0-191.474,0c-3.625,0-9.821,0.299-12.426,0.14l-24.394,0.159v12.871
		L311.444,450.27L311.444,450.27z"/>
	<path style="fill-rule:evenodd;clip-rule:evenodd;" d="M730.111,490.115c4.093,0,8.516-0.299,11.702,2.937
		c5.418,5.448,1.973,16.042,0.796,22.314c-0.835,4.548-1.592,8.606-2.496,13.115l-7.429,39.081c-1.44,7.143-7.04,34.545-7.04,39.799
		c0,7.455,0.529,15.35,5.799,20.658c5.18,5.181,9.155,6.757,17.136,6.757c10.867,0,23.679-6.874,32.126-12.494l18.692-14.762
		c0.449-1.062,0.169-9.161,0.169-10.993c-1.484,0.4-2.901,2.742-4.733,4.211c-5.89,4.677-7.911,7.247-15.723,11.994
		c-4.505,2.729-14.707,7.709-19.209,2.118c-4.167-5.188-2.122-14.778-0.936-20.677l26.898-132.731
		c-1.575,0.747-4.321,1.394-6.244,2.03c-10.196,3.411-21.558,6.634-31.715,10.032l-31.695,10.054
		c-3.355,0.961-5.389,1.238-5.551,3.041c-0.881,9.515-1.097,8.544,2.17,7.598c1.023-0.302,2.359-0.601,3.538-0.935
		C718.982,492.512,727.705,490.115,730.111,490.115L730.111,490.115z"/>
	<path style="fill-rule:evenodd;clip-rule:evenodd;" d="M446.519,516.243c0,10.737,3.327,17.929,9.649,24.134l18.124,20.437
		c2.959,3.674,5.74,5.519,8.462,10.973c6.262,12.498,3.204,26.015-11.81,29.4c-3.531,0.78-5.918,0.535-9.449,0.448
		c-5.028-0.126-11.841-2.517-16.386-4.327c-7.066-2.83-8.093-4.09-13.872-7.14c-1.126,1.679-8.527,8.849-10.122,10.587l-6.133,6.605
		c2.711,1.442,12.817,4.427,15.694,5.035c20.414,4.314,40.204,3.161,57.402-8.713c3.97-2.758,9.298-7.965,11.768-12.143
		c1.665-2.804,2.701-4.519,3.842-7.936c3.6-10.883,1.343-22.201-5.504-30.758l-20.934-25.579c-2.515-3.187-6.307-7.115-7.995-10.502
		c-2.254-4.526-3.986-8.489-3.297-14.863c1.083-10.148,12.608-15.921,21.343-15.921c4.029,0,7.205-0.107,11.122,1.309
		c5.758,2.073,11.83,6.647,11.83,13.657c0,5.208-0.392,4.028-0.649,7.007h7.974c0.716-1.452,2.784-11.035,3.274-13.293l3.096-13.787
		c-2.963-0.695-5.088-2.251-11.881-3.421c-13.605-2.322-26.175-1.273-38.788,4.376c-4.516,2.024-10.431,5.468-13.917,9.005
		l-2.885,2.862C450.923,500.052,446.519,506.709,446.519,516.243L446.519,516.243z"/>
	<path style="fill-rule:evenodd;clip-rule:evenodd;" d="M334.051,517.199c0,6.711,2.437,14.433,6.511,19.631l15.298,17.202
		c0.586,0.75,0.886,0.984,1.537,1.637l7.809,8.768c3.381,3.327,8.363,11.514,8.363,18.072c0,6.267-1.697,11.49-6.197,14.843
		c-11.894,8.95-29.205,2.989-40.875-2.843c-1.329-0.653-2.35-1.277-3.699-2.017c-1.192-0.643-2.468-1.712-3.732-2.011l-12.29,12.549
		c-1.649,2.151-3.566,3.255-3.949,4.656c1.374,0.312,2.42,0.805,3.551,1.228c1.29,0.477,2.612,0.883,3.811,1.276
		c20.604,6.94,47.901,6.585,65.332-6.266c4.566-3.395,8.28-6.676,11.48-11.458c8.604-12.731,7.971-27.769-1.34-39.899l-26.684-32.57
		c-1.223-1.371-1.724-2.365-2.538-4.158c-1.861-4.161-2.949-6.549-2.949-11.708c0-23.179,44.613-24.716,44.613-1.583
		c0,2.317-0.604,3.496-0.634,5.406c9.226,0,7.97,0.728,8.723-2.735c0.283-1.277,0.506-2.361,0.769-3.375
		c0.758-3.086,4.18-19.293,4.832-20.645c-6.479-3.43-16.897-4.779-25.797-4.779c-14.269,0-30.811,6.452-38.169,13.777
		c-1.102,1.088-1.939,1.556-3.033,2.693c-0.658,0.702-0.702,0.903-1.276,1.599c-4.432,5.243-7.591,9.986-8.832,17.292
		C334.457,513.095,334.051,515.801,334.051,517.199L334.051,517.199z"/>
	<path style="fill-rule:evenodd;clip-rule:evenodd;" d="M747.31,425.438c-1.732,2.563-7.143,5.386-10.624,6.572
		c-2.549,0.861-7.493,2.115-10.431,2.332c-1.563,0.101-2.833,0.328-4.121,0.328c0,1.296-0.048,1.4,0.308,2.336l4.474-0.199
		c0.789-0.351,10.713-0.653,18.662-6.413c5.042-3.635,1.186-2.446,6.961-3.239c1.859-0.25,2.792-0.224,4.52-0.578
		c26.476-5.377,36.878-39.854,37.085-64.245l0.55-9.639c0.371-2.606,0.091-7.264,0.091-10.1h-0.641
		c-0.344,4.211-8.19,16.088-10.827,19.758C766.909,380.699,741.501,398.706,747.31,425.438L747.31,425.438z"/>
	<path style="fill-rule:evenodd;clip-rule:evenodd;" d="M745.4,416.817L745.4,416.817L745.4,416.817z"/>
	<path style="fill-rule:evenodd;clip-rule:evenodd;" d="M729.826,404.527c6.497,0,11.761,5.26,11.761,11.737
		c0,6.481-5.264,11.737-11.761,11.737c-6.474,0-11.735-5.256-11.735-11.737C718.091,409.787,723.351,404.527,729.826,404.527
		L729.826,404.527z"/>
	<path style="fill-rule:evenodd;clip-rule:evenodd;" d="M775.58,644.586l-6.41,12.818H181v-2.397
		c30.605,2.115,50.766-2.01,63.82-10.382L775.58,644.586L775.58,644.586z"/>
</g>
</svg>
